{"title":"Ghost - 2012 - Upscaled DVDRip - 720p - x264 - AC3 5.1 - DrC - [","uid":7116897,"size":2146841310,"categoryP":"video","categoryS":"hd___movies","magnet":"?xt=urn:btih:e8d5cf3b9af8265db1292137169e281a245e712e&amp;dn=Ghost+-+2012+-+Upscaled+DVDRip+-+720p+-+x264+-+AC3+5.1+-+DrC+-+%5B&amp;tr=udp%3A%2F%2Ftracker.openbittorrent.com%3A80&amp;tr=udp%3A%2F%2Fopen.demonii.com%3A1337&amp;tr=udp%3A%2F%2Ftracker.coppersurfer.tk%3A6969&amp;tr=udp%3A%2F%2Fexodus.desync.com%3A6969","seeders":1,"leechers":0,"uploader":"DiD.DrC","files":2,"time":1332242060,"description":"Ghost - 2012 - Upscaled DVDRip - 720p - x264 - AC3 5.1 - DrC - [D!D]\n\nScreenshots :\n &lt;a href=&quot;\nhttp://i.imgur.com/30ilz.jpg&quot; rel=&quot;nofollow&quot; target=&quot;_NEW&quot;&gt;\nhttp://i.imgur.com/30ilz.jpg&lt;/a&gt; &lt;a href=&quot;\nhttp://i.imgur.com/zKUbS.png&quot; rel=&quot;nofollow&quot; target=&quot;_NEW&quot;&gt;\nhttp://i.imgur.com/zKUbS.png&lt;/a&gt; &lt;a href=&quot;\nhttp://i.imgur.com/4n0nI.png&quot; rel=&quot;nofollow&quot; target=&quot;_NEW&quot;&gt;\nhttp://i.imgur.com/4n0nI.png&lt;/a&gt; &lt;a href=&quot;\nhttp://i.imgur.com/KmE1f.png&quot; rel=&quot;nofollow&quot; target=&quot;_NEW&quot;&gt;\nhttp://i.imgur.com/KmE1f.png&lt;/a&gt; &lt;a href=&quot;\nhttp://i.imgur.com/RDPKj.png&quot; rel=&quot;nofollow&quot; target=&quot;_NEW&quot;&gt;\nhttp://i.imgur.com/RDPKj.png&lt;/a&gt; &lt;a href=&quot;\nhttp://i.imgur.com/lgtHX.png&quot; rel=&quot;nofollow&quot; target=&quot;_NEW&quot;&gt;\nhttp://i.imgur.com/lgtHX.png&lt;/a&gt; &lt;a href=&quot;\nhttp://i.imgur.com/0hKFv.png&quot; rel=&quot;nofollow&quot; target=&quot;_NEW&quot;&gt;\nhttp://i.imgur.com/0hKFv.png&lt;/a&gt; &lt;a href=&quot;\nhttp://i.imgur.com/7CoWp.png&quot; rel=&quot;nofollow&quot; target=&quot;_NEW&quot;&gt;\nhttp://i.imgur.com/7CoWp.png&lt;/a&gt;\n\nRip Specs :\n\nGeneral\n\nFormat                                   : Matroska\nFormat version                           : Version 2\nFile size                                : 2.00 GiB\nDuration                                 : 1h 54mn\nOverall bit rate mode                    : Variable\nOverall bit rate                         : 2 504 Kbps\n\n\nVideo\n\nFormat                                   : AVC\nFormat/Info                              : Advanced Video Codec\nFormat profile                           : &lt;a class=&quot;__cf_email__&quot; href=&quot;/cdn-cgi/l/email-protection&quot; data-cfemail=&quot;d49cbdb3bc9498e0fae5&quot;&gt;[email&amp;#160;protected]&lt;/a&gt;&lt;script cf-hash='f9e31' type=&quot;text/javascript&quot;&gt;\n/* &lt;![CDATA[ */!function(){try{var t=&quot;currentScript&quot;in document?document.currentScript:function(){for(var t=document.getElementsByTagName(&quot;script&quot;),e=t.length;e--;)if(t[e].getAttribute(&quot;cf-hash&quot;))return t[e]}();if(t&amp;&amp;t.previousSibling){var e,r,n,i,c=t.previousSibling,a=c.getAttribute(&quot;data-cfemail&quot;);if(a){for(e=&quot;&quot;,r=parseInt(a.substr(0,2),16),n=2;a.length-n;n+=2)i=parseInt(a.substr(n,2),16)^r,e+=String.fromCharCode(i);e=document.createTextNode(e),c.parentNode.replaceChild(e,c)}}}catch(u){}}();/* ]]&gt; */&lt;/script&gt;\nFormat settings, CABAC                   : Yes\nFormat settings, ReFrames                : 3 frames\nCodec ID                                 : V_MPEG4/ISO/AVC\nDuration                                 : 1h 54mn\nBit rate mode                            : Variable\nBit rate                                 : 2 054 Kbps\nMaximum bit rate                         : 40.0 Mbps\nWidth                                    : 1 280 pixels\nHeight                                   : 544 pixels\nDisplay aspect ratio                     : 2.35:1\nFrame rate                               : 23.976 fps\nColor space                              : YUV\nChroma subsampling                       : 4:2:0\nBit depth                                : 8 bits\nScan type                                : Progressive\nBits/(Pixel*Frame)                       : 0.123\nStream size                              : 1.60 GiB (80%)\n\n\nAudio\n\nFormat                                   : AC-3\nFormat/Info                              : Audio Coding 3\nMode extension                           : CM (complete main)\nCodec ID                                 : A_AC3\nDuration                                 : 1h 54mn\nBit rate mode                            : Constant\nBit rate                                 : 448 Kbps\nChannel(s)                               : 6 channels\nChannel positions                        : Front: L C R, Side: L R, LFE\nSampling rate                            : 48.0 KHz\nBit depth                                : 16 bits\nCompression mode                         : Lossy\nStream size                              : 366 MiB (18%)\n\nText\nID                                       : 3\nFormat                                   : VobSub\nMuxing mode                              : zlib\nCodec ID                                 : S_VOBSUB\nCodec ID/Info                            : The same subtitle format used on DVDs","torrent":{"xt":"urn:btih:e8d5cf3b9af8265db1292137169e281a245e712e","amp;dn":"Ghost+-+2012+-+Upscaled+DVDRip+-+720p+-+x264+-+AC3+5.1+-+DrC+-+%5B","amp;tr":["udp%3A%2F%2Ftracker.openbittorrent.com%3A80","udp%3A%2F%2Fopen.demonii.com%3A1337","udp%3A%2F%2Ftracker.coppersurfer.tk%3A6969","udp%3A%2F%2Fexodus.desync.com%3A6969"],"infoHash":"e8d5cf3b9af8265db1292137169e281a245e712e","infoHashBuffer":{"type":"Buffer","data":[232,213,207,59,154,248,38,93,177,41,33,55,22,158,40,26,36,94,113,46]},"announce":[],"urlList":[]}}